<svg height="384pt" viewBox="-8 0 384 384" width="384pt" xmlns="http://www.w3.org/2000/svg"><path d="m328.082031 127.839844-.082031 32h-143.757812l-.082032-143.519532v-.320312h99.761719c43.039063 0 43.839844 8.878906 44.320313 47.921875zm0 0" fill="#e0f7fa"/><path d="m184.242188 159.839844h143.757812v111.921875c-1.121094 16-16.320312 32.316406-33.757812 32.316406l-196-.238281-24.882813.238281c-17.4375 0-32.878906-14.636719-32.878906-32.316406v-111.921875zm79.917968 72c0-8.878906-7.199218-16-16-16-8.878906 0-16 7.121094-16 16 0 8.800781 7.121094 16 16 16 8.800782 0 16-7.199219 16-16zm-127.839844 0c0-8.878906-7.121093-16-16-16-8.800781 0-16 7.121094-16 16s7.199219 16 16 16c8.878907 0 16-7.121094 16-16zm0 0" fill="#4dd0e1"/><path d="m184.160156 16.320312.082032 143.519532h-143.761719l.558593-95.917969c0-39.363281-.636718-47.921875 35.042969-47.921875h108.078125zm0 0" fill="#e0f7fa"/><g fill="#012e52"><path d="m310.558594 384c8.832031 0 16-7.167969 16-16s-7.167969-16-16-16h-253.679688c-8.832031 0-16 7.167969-16 16s7.167969 16 16 16zm0 0"/><path d="m15.863281 200.160156h.136719c3.121094 0 6.015625-.929687 8.480469-2.472656v74.082031c0 26.191407 22.382812 48.320313 49.039062 48.320313l24.714844-.242188 196.015625.242188c24.726562 0 47.957031-22.058594 49.71875-47.203125.015625-.382813.03125-.75.03125-1.125v-74.144531c2.359375 1.375 5.074219 2.214843 8 2.214843 8.832031 0 16-7.167969 16-16v-56c0-8.832031-7.167969-16-16-16h-7.878906l.121094-48.121093c-.5625-45.269532-6.167969-63.710938-60.320313-63.710938h-207.839844c-16.28125 0-34.464843 1.246094-44.105469 16.144531-6.945312 10.734375-6.945312 23.910157-6.9375 45.734375l-.285156 49.960938h-8.273437c-8.785157 0-15.921875 7.082031-16 15.863281l-.480469 56.320313c-.0703125 8.832031 7.03125 16.066406 15.863281 16.136718zm278.394531 87.917969-196.167968-.238281-24.730469.238281c-8.832031 0-16.878906-7.773437-16.878906-16.316406v-95.921875h255.519531v95.25c-.824219 7.605468-9.152344 16.988281-17.742188 16.988281zm15.246094-252.804687c2.417969 3.039062 2.601563 17.957031 2.738282 28.605468l-.160157 63.546875c0 .140625-.042969.269531-.042969.414063 0 .136718.042969.257812.042969.390625l-.042969 15.609375h-111.804687l-.066406-111.839844h83.761719c21.878906 0 25.152343 2.726562 25.574218 3.273438zm-252.464844 28.648437v-2.050781c0-11.910156-.007812-25.40625 1.449219-27.976563.472657-.320312 3.578125-1.894531 17.59375-1.894531h92.085938l.066406 111.839844h-111.664063zm0 0"/><path d="m152.320312 231.839844c0 17.671875-14.328124 32-32 32-17.671874 0-32-14.328125-32-32s14.328126-32 32-32c17.671876 0 32 14.328125 32 32zm0 0"/><path d="m280.160156 231.839844c0 17.671875-14.328125 32-32 32s-32-14.328125-32-32 14.328125-32 32-32 32 14.328125 32 32zm0 0"/></g></svg>